<svg width="42" height="42" viewBox="0 0 42 42" fill="none" xmlns="http://www.w3.org/2000/svg">
<path d="M40.0312 10.5H39.375V6.5625C39.375 2.8875 31.2375 0 21 0C10.7625 0 2.625 2.8875 2.625 6.5625V10.5H1.96875C0.881836 10.5 0 11.381 0 12.4688V19.0312C0 20.1182 0.881836 21 1.96875 21H2.625V34.125C2.625 35.5745 3.80051 36.75 5.25 36.75V39.375C5.25 40.8245 6.42551 42 7.875 42H10.5C11.9495 42 13.125 40.8245 13.125 39.375V36.75H28.875V39.375C28.875 40.8245 30.0505 42 31.5 42H34.125C35.5745 42 36.75 40.8245 36.75 39.375V36.75H37.275C38.5875 36.75 39.375 35.7 39.375 34.65V21H40.0312C41.1182 21 42 20.1182 42 19.0312V12.4688C42 11.381 41.1182 10.5 40.0312 10.5ZM9.1875 32.8125C7.73801 32.8125 6.5625 31.637 6.5625 30.1875C6.5625 28.738 7.73801 27.5625 9.1875 27.5625C10.637 27.5625 11.8125 28.738 11.8125 30.1875C11.8125 31.637 10.637 32.8125 9.1875 32.8125ZM10.5 23.625C9.05051 23.625 7.875 22.4495 7.875 21V10.5C7.875 9.05051 9.05051 7.875 10.5 7.875H31.5C32.9495 7.875 34.125 9.05051 34.125 10.5V21C34.125 22.4495 32.9495 23.625 31.5 23.625H10.5ZM32.8125 32.8125C31.363 32.8125 30.1875 31.637 30.1875 30.1875C30.1875 28.738 31.363 27.5625 32.8125 27.5625C34.262 27.5625 35.4375 28.738 35.4375 30.1875C35.4375 31.637 34.262 32.8125 32.8125 32.8125Z" fill="#1E659C"/>
</svg>
