<svg width="22" height="23" viewBox="0 0 22 23" fill="none" xmlns="http://www.w3.org/2000/svg">
<path d="M10.3217 19.9451C5.32712 12.7044 4.40002 11.9613 4.40002 9.30019C4.40002 5.6551 7.35493 2.7002 11 2.7002C14.6451 2.7002 17.6 5.6551 17.6 9.30019C17.6 11.9613 16.6729 12.7044 11.6783 19.9451C11.3505 20.4186 10.6495 20.4185 10.3217 19.9451ZM11 12.0502C12.5188 12.0502 13.75 10.819 13.75 9.30019C13.75 7.7814 12.5188 6.55019 11 6.55019C9.48123 6.55019 8.25002 7.7814 8.25002 9.30019C8.25002 10.819 9.48123 12.0502 11 12.0502Z" fill="white"/>
</svg>
