<svg width="21" height="21" viewBox="0 0 21 21" fill="none" xmlns="http://www.w3.org/2000/svg">
<path fill-rule="evenodd" clip-rule="evenodd" d="M9.11572 1.36023C9.11572 0.608995 9.72472 0 10.476 0C11.2272 0 11.8362 0.608994 11.8362 1.36023V2.68949C15.1412 3.25081 17.7492 5.85889 18.3106 9.16387H19.6398C20.391 9.16387 21 9.77287 21 10.5241C21 11.2753 20.391 11.8843 19.6398 11.8843H18.3022C17.7239 15.1665 15.1251 17.752 11.8361 18.3106V19.6398C11.8361 20.391 11.2271 21 10.4759 21C9.72467 21 9.11567 20.391 9.11567 19.6398V18.3022C5.8655 17.7295 3.29846 15.1755 2.70637 11.932H1.36023C0.608995 11.932 0 11.323 0 10.5718C0 9.82052 0.608994 9.21153 1.36023 9.21153H2.68155C3.22315 5.90009 5.81775 3.27898 9.11572 2.69782V1.36023ZM15.7024 10.4763C15.7024 13.3626 13.3626 15.7024 10.4763 15.7024C7.58997 15.7024 5.25015 13.3626 5.25015 10.4763C5.25015 7.58997 7.58997 5.25015 10.4763 5.25015C13.3626 5.25015 15.7024 7.58997 15.7024 10.4763ZM10.5001 13.9842C12.4244 13.9842 13.9842 12.4244 13.9842 10.5001C13.9842 8.57593 12.4244 7.01605 10.5001 7.01605C8.57593 7.01605 7.01605 8.57593 7.01605 10.5001C7.01605 12.4244 8.57593 13.9842 10.5001 13.9842Z" fill="#333333"/>
</svg>
