<svg width="38" height="45" viewBox="0 0 38 45" fill="none" xmlns="http://www.w3.org/2000/svg">
<g filter="url(#filter0_d_707_4112)">
<path d="M17.4584 39.193C6.10703 22.7368 4 21.0479 4 15C4 6.7157 10.7157 0 19 0C27.2843 0 34 6.7157 34 15C34 21.0479 31.893 22.7368 20.5416 39.193C19.7966 40.2691 18.2033 40.269 17.4584 39.193ZM19 21.25C22.4518 21.25 25.25 18.4518 25.25 15C25.25 11.5482 22.4518 8.75 19 8.75C15.5482 8.75 12.75 11.5482 12.75 15C12.75 18.4518 15.5482 21.25 19 21.25Z" fill="#333333"/>
</g>
<defs>
<filter id="filter0_d_707_4112" x="0" y="0" width="38" height="48" filterUnits="userSpaceOnUse" color-interpolation-filters="sRGB">
<feFlood flood-opacity="0" result="BackgroundImageFix"/>
<feColorMatrix in="SourceAlpha" type="matrix" values="0 0 0 0 0 0 0 0 0 0 0 0 0 0 0 0 0 0 127 0" result="hardAlpha"/>
<feOffset dy="4"/>
<feGaussianBlur stdDeviation="2"/>
<feComposite in2="hardAlpha" operator="out"/>
<feColorMatrix type="matrix" values="0 0 0 0 0 0 0 0 0 0 0 0 0 0 0 0 0 0 0.25 0"/>
<feBlend mode="normal" in2="BackgroundImageFix" result="effect1_dropShadow_707_4112"/>
<feBlend mode="normal" in="SourceGraphic" in2="effect1_dropShadow_707_4112" result="shape"/>
</filter>
</defs>
</svg>
